<mxfile host="app.diagrams.net" modified="2024-04-28T05:21:35.089Z" agent="Mozilla/5.0 (Windows NT 10.0; Win64; x64) AppleWebKit/537.36 (KHTML, like Gecko) Chrome/124.0.0.0 Safari/537.36" etag="m1RwtpeOltKLXTldcaft" version="24.3.1" type="device">
  <diagram name="Página-1" id="RXc2RLLWSJeJABgzcuFo">
    <mxGraphModel dx="2150" dy="757" grid="1" gridSize="10" guides="1" tooltips="1" connect="1" arrows="1" fold="1" page="1" pageScale="1" pageWidth="827" pageHeight="1169" math="0" shadow="0">
      <root>
        <mxCell id="0" />
        <mxCell id="1" parent="0" />
        <mxCell id="RIBPLgs2tIToHIS9_J1g-52" value="" style="rounded=0;whiteSpace=wrap;html=1;" parent="1" vertex="1">
          <mxGeometry x="-261" y="20" width="1180" height="580" as="geometry" />
        </mxCell>
        <mxCell id="BTqJfUpLhKWyFMrB6gHA-2" value="Controllers" style="swimlane;whiteSpace=wrap;html=1;" parent="1" vertex="1">
          <mxGeometry x="280" y="170" width="195" height="160" as="geometry" />
        </mxCell>
        <mxCell id="BTqJfUpLhKWyFMrB6gHA-15" value="Pesquisador(Administrador)" style="swimlane;fontStyle=0;childLayout=stackLayout;horizontal=1;startSize=30;horizontalStack=0;resizeParent=1;resizeParentMax=0;resizeLast=0;collapsible=1;marginBottom=0;whiteSpace=wrap;html=1;" parent="BTqJfUpLhKWyFMrB6gHA-2" vertex="1">
          <mxGeometry x="15" y="30" width="165" height="110" as="geometry">
            <mxRectangle x="5" y="30" width="190" height="30" as="alternateBounds" />
          </mxGeometry>
        </mxCell>
        <mxCell id="LdJqGwaRtgfYzR_Oomfc-2" value="Validar" style="text;strokeColor=none;fillColor=none;align=left;verticalAlign=middle;spacingLeft=4;spacingRight=4;overflow=hidden;points=[[0,0.5],[1,0.5]];portConstraint=eastwest;rotatable=0;whiteSpace=wrap;html=1;" vertex="1" parent="BTqJfUpLhKWyFMrB6gHA-15">
          <mxGeometry y="30" width="165" height="30" as="geometry" />
        </mxCell>
        <mxCell id="BTqJfUpLhKWyFMrB6gHA-16" value="Mostrar" style="text;strokeColor=none;fillColor=none;align=left;verticalAlign=middle;spacingLeft=4;spacingRight=4;overflow=hidden;points=[[0,0.5],[1,0.5]];portConstraint=eastwest;rotatable=0;whiteSpace=wrap;html=1;" parent="BTqJfUpLhKWyFMrB6gHA-15" vertex="1">
          <mxGeometry y="60" width="165" height="30" as="geometry" />
        </mxCell>
        <mxCell id="BTqJfUpLhKWyFMrB6gHA-19" value="CheckRole" style="text;strokeColor=none;fillColor=none;align=left;verticalAlign=middle;spacingLeft=4;spacingRight=4;overflow=hidden;points=[[0,0.5],[1,0.5]];portConstraint=eastwest;rotatable=0;whiteSpace=wrap;html=1;" parent="BTqJfUpLhKWyFMrB6gHA-15" vertex="1">
          <mxGeometry y="90" width="165" height="20" as="geometry" />
        </mxCell>
        <mxCell id="BTqJfUpLhKWyFMrB6gHA-5" value="Models" style="swimlane;whiteSpace=wrap;html=1;startSize=23;" parent="1" vertex="1">
          <mxGeometry x="510" y="170" width="200" height="200" as="geometry" />
        </mxCell>
        <mxCell id="BTqJfUpLhKWyFMrB6gHA-9" value="Pesquisador(Administrador)" style="swimlane;fontStyle=0;childLayout=stackLayout;horizontal=1;startSize=30;horizontalStack=0;resizeParent=1;resizeParentMax=0;resizeLast=0;collapsible=1;marginBottom=0;whiteSpace=wrap;html=1;" parent="BTqJfUpLhKWyFMrB6gHA-5" vertex="1">
          <mxGeometry x="23" y="42" width="160" height="120" as="geometry">
            <mxRectangle x="23" y="42" width="190" height="30" as="alternateBounds" />
          </mxGeometry>
        </mxCell>
        <mxCell id="BTqJfUpLhKWyFMrB6gHA-10" value="Id" style="text;strokeColor=none;fillColor=none;align=left;verticalAlign=middle;spacingLeft=4;spacingRight=4;overflow=hidden;points=[[0,0.5],[1,0.5]];portConstraint=eastwest;rotatable=0;whiteSpace=wrap;html=1;" parent="BTqJfUpLhKWyFMrB6gHA-9" vertex="1">
          <mxGeometry y="30" width="160" height="30" as="geometry" />
        </mxCell>
        <mxCell id="LdJqGwaRtgfYzR_Oomfc-1" value="Role" style="text;strokeColor=none;fillColor=none;align=left;verticalAlign=middle;spacingLeft=4;spacingRight=4;overflow=hidden;points=[[0,0.5],[1,0.5]];portConstraint=eastwest;rotatable=0;whiteSpace=wrap;html=1;" vertex="1" parent="BTqJfUpLhKWyFMrB6gHA-9">
          <mxGeometry y="60" width="160" height="30" as="geometry" />
        </mxCell>
        <mxCell id="BTqJfUpLhKWyFMrB6gHA-11" value="Listas" style="text;strokeColor=none;fillColor=none;align=left;verticalAlign=middle;spacingLeft=4;spacingRight=4;overflow=hidden;points=[[0,0.5],[1,0.5]];portConstraint=eastwest;rotatable=0;whiteSpace=wrap;html=1;" parent="BTqJfUpLhKWyFMrB6gHA-9" vertex="1">
          <mxGeometry y="90" width="160" height="30" as="geometry" />
        </mxCell>
        <mxCell id="RIBPLgs2tIToHIS9_J1g-12" value="Servidor Banco de Dados" style="swimlane;whiteSpace=wrap;html=1;" parent="1" vertex="1">
          <mxGeometry x="742" y="60" width="160" height="500" as="geometry" />
        </mxCell>
        <mxCell id="RIBPLgs2tIToHIS9_J1g-16" value="" style="image;aspect=fixed;html=1;points=[];align=center;fontSize=12;image=img/lib/azure2/databases/Azure_Database_PostgreSQL_Server.svg;" parent="RIBPLgs2tIToHIS9_J1g-12" vertex="1">
          <mxGeometry x="70" y="176" width="48" height="64" as="geometry" />
        </mxCell>
        <mxCell id="RIBPLgs2tIToHIS9_J1g-32" value="Render" style="image;points=[];aspect=fixed;html=1;align=center;shadow=0;dashed=0;image=img/lib/allied_telesis/storage/Datacenter_Server_Half_Rack_ToR.svg;" parent="RIBPLgs2tIToHIS9_J1g-12" vertex="1">
          <mxGeometry x="56" y="40" width="38.2" height="49.63" as="geometry" />
        </mxCell>
        <mxCell id="RIBPLgs2tIToHIS9_J1g-17" style="edgeStyle=orthogonalEdgeStyle;rounded=0;orthogonalLoop=1;jettySize=auto;html=1;entryX=0.033;entryY=0.547;entryDx=0;entryDy=0;entryPerimeter=0;exitX=1.002;exitY=-0.006;exitDx=0;exitDy=0;exitPerimeter=0;" parent="1" source="BTqJfUpLhKWyFMrB6gHA-11" target="RIBPLgs2tIToHIS9_J1g-16" edge="1">
          <mxGeometry relative="1" as="geometry">
            <mxPoint x="690" y="271" as="sourcePoint" />
            <Array as="points">
              <mxPoint x="740" y="272" />
            </Array>
          </mxGeometry>
        </mxCell>
        <mxCell id="RIBPLgs2tIToHIS9_J1g-23" value="Usuário" style="sketch=0;outlineConnect=0;fontColor=#232F3E;gradientColor=none;fillColor=#232F3D;strokeColor=none;dashed=0;verticalLabelPosition=bottom;verticalAlign=top;align=center;html=1;fontSize=12;fontStyle=0;aspect=fixed;pointerEvents=1;shape=mxgraph.aws4.user;" parent="1" vertex="1">
          <mxGeometry x="-142.81" y="130" width="65.62" height="65.62" as="geometry" />
        </mxCell>
        <mxCell id="RIBPLgs2tIToHIS9_J1g-27" value="Servidor" style="swimlane;whiteSpace=wrap;html=1;" parent="1" vertex="1">
          <mxGeometry x="40" y="60" width="680" height="500" as="geometry" />
        </mxCell>
        <mxCell id="RIBPLgs2tIToHIS9_J1g-25" value="Render" style="image;points=[];aspect=fixed;html=1;align=center;shadow=0;dashed=0;image=img/lib/allied_telesis/storage/Datacenter_Server_Half_Rack_ToR.svg;" parent="RIBPLgs2tIToHIS9_J1g-27" vertex="1">
          <mxGeometry x="330.9" y="25.990000000000002" width="38.2" height="49.63" as="geometry" />
        </mxCell>
        <mxCell id="RIBPLgs2tIToHIS9_J1g-24" value="Views" style="swimlane;whiteSpace=wrap;html=1;startSize=23;" parent="RIBPLgs2tIToHIS9_J1g-27" vertex="1">
          <mxGeometry x="40" y="110" width="170" height="250" as="geometry" />
        </mxCell>
        <mxCell id="RIBPLgs2tIToHIS9_J1g-41" value="Resultados" style="swimlane;fontStyle=0;childLayout=stackLayout;horizontal=1;startSize=30;horizontalStack=0;resizeParent=1;resizeParentMax=0;resizeLast=0;collapsible=1;marginBottom=0;whiteSpace=wrap;html=1;" parent="RIBPLgs2tIToHIS9_J1g-24" vertex="1">
          <mxGeometry x="15" y="38" width="140" height="180" as="geometry" />
        </mxCell>
        <mxCell id="RIBPLgs2tIToHIS9_J1g-42" value="Gráficos" style="text;strokeColor=none;fillColor=none;align=left;verticalAlign=middle;spacingLeft=4;spacingRight=4;overflow=hidden;points=[[0,0.5],[1,0.5]];portConstraint=eastwest;rotatable=0;whiteSpace=wrap;html=1;" parent="RIBPLgs2tIToHIS9_J1g-41" vertex="1">
          <mxGeometry y="30" width="140" height="30" as="geometry" />
        </mxCell>
        <mxCell id="RIBPLgs2tIToHIS9_J1g-43" value="Texto" style="text;strokeColor=none;fillColor=none;align=left;verticalAlign=middle;spacingLeft=4;spacingRight=4;overflow=hidden;points=[[0,0.5],[1,0.5]];portConstraint=eastwest;rotatable=0;whiteSpace=wrap;html=1;" parent="RIBPLgs2tIToHIS9_J1g-41" vertex="1">
          <mxGeometry y="60" width="140" height="30" as="geometry" />
        </mxCell>
        <mxCell id="I2hOyJSX5jLJxWjVf70s-1" value="Navbar" style="text;strokeColor=none;fillColor=none;align=left;verticalAlign=middle;spacingLeft=4;spacingRight=4;overflow=hidden;points=[[0,0.5],[1,0.5]];portConstraint=eastwest;rotatable=0;whiteSpace=wrap;html=1;" parent="RIBPLgs2tIToHIS9_J1g-41" vertex="1">
          <mxGeometry y="90" width="140" height="30" as="geometry" />
        </mxCell>
        <mxCell id="I2hOyJSX5jLJxWjVf70s-2" value="Texto" style="text;strokeColor=none;fillColor=none;align=left;verticalAlign=middle;spacingLeft=4;spacingRight=4;overflow=hidden;points=[[0,0.5],[1,0.5]];portConstraint=eastwest;rotatable=0;whiteSpace=wrap;html=1;" parent="RIBPLgs2tIToHIS9_J1g-41" vertex="1">
          <mxGeometry y="120" width="140" height="30" as="geometry" />
        </mxCell>
        <mxCell id="RIBPLgs2tIToHIS9_J1g-44" value="Imagem" style="text;strokeColor=none;fillColor=none;align=left;verticalAlign=middle;spacingLeft=4;spacingRight=4;overflow=hidden;points=[[0,0.5],[1,0.5]];portConstraint=eastwest;rotatable=0;whiteSpace=wrap;html=1;" parent="RIBPLgs2tIToHIS9_J1g-41" vertex="1">
          <mxGeometry y="150" width="140" height="30" as="geometry" />
        </mxCell>
        <mxCell id="RIBPLgs2tIToHIS9_J1g-49" style="edgeStyle=orthogonalEdgeStyle;rounded=0;orthogonalLoop=1;jettySize=auto;html=1;entryX=0;entryY=0.5;entryDx=0;entryDy=0;dashed=1;" parent="1" source="RIBPLgs2tIToHIS9_J1g-48" target="RIBPLgs2tIToHIS9_J1g-24" edge="1">
          <mxGeometry relative="1" as="geometry" />
        </mxCell>
        <mxCell id="RIBPLgs2tIToHIS9_J1g-48" value="" style="shape=image;html=1;verticalAlign=top;verticalLabelPosition=bottom;labelBackgroundColor=#ffffff;imageAspect=0;aspect=fixed;image=https://cdn2.iconfinder.com/data/icons/social-media-and-payment/64/-36-128.png" parent="1" vertex="1">
          <mxGeometry x="-160" y="306" width="88" height="88" as="geometry" />
        </mxCell>
        <mxCell id="RIBPLgs2tIToHIS9_J1g-50" style="edgeStyle=orthogonalEdgeStyle;rounded=0;orthogonalLoop=1;jettySize=auto;html=1;entryX=1;entryY=0.5;entryDx=0;entryDy=0;dashed=1;" parent="1" source="RIBPLgs2tIToHIS9_J1g-24" target="RIBPLgs2tIToHIS9_J1g-48" edge="1">
          <mxGeometry relative="1" as="geometry" />
        </mxCell>
        <mxCell id="RIBPLgs2tIToHIS9_J1g-51" value="Cliente" style="swimlane;horizontal=0;whiteSpace=wrap;html=1;" parent="1" vertex="1">
          <mxGeometry x="-210" y="250" width="200" height="200" as="geometry" />
        </mxCell>
        <mxCell id="eetvFEcLnggMSrz9Y7YA-3" value="" style="endArrow=classic;html=1;rounded=0;startArrow=blockThin;startFill=1;" parent="1" edge="1">
          <mxGeometry width="50" height="50" relative="1" as="geometry">
            <mxPoint x="295" y="271" as="sourcePoint" />
            <mxPoint x="235" y="271" as="targetPoint" />
          </mxGeometry>
        </mxCell>
        <mxCell id="eetvFEcLnggMSrz9Y7YA-4" value="" style="endArrow=classic;html=1;rounded=0;startArrow=blockThin;startFill=1;entryX=1.009;entryY=0.433;entryDx=0;entryDy=0;entryPerimeter=0;" parent="1" edge="1">
          <mxGeometry width="50" height="50" relative="1" as="geometry">
            <mxPoint x="526" y="272" as="sourcePoint" />
            <mxPoint x="461.4850000000001" y="272.99" as="targetPoint" />
          </mxGeometry>
        </mxCell>
      </root>
    </mxGraphModel>
  </diagram>
</mxfile>
